<svg width="459" height="635" viewBox="0 0 459 635" fill="none" xmlns="http://www.w3.org/2000/svg">
<mask id="mask0_528_27" style="mask-type:alpha" maskUnits="userSpaceOnUse" x="52" y="13" width="407" height="622">
<rect x="52" y="13" width="407" height="622" fill="#D9D9D9"/>
</mask>
<g mask="url(#mask0_528_27)">
<path d="M772 397.5C772 582.792 614.524 733 420.267 733C226.011 733 52 582.792 52 397.5C52 212.208 226.5 54.5 420.267 43C614.524 43 772 212.208 772 397.5Z" fill="#E9BE50"/>
</g>
<mask id="mask1_528_27" style="mask-type:alpha" maskUnits="userSpaceOnUse" x="0" y="0" width="459" height="635">
<rect width="459" height="635" fill="#D9D9D9"/>
</mask>
<g mask="url(#mask1_528_27)">
<path d="M720 356.5C720 541.792 562.524 692 368.267 692C174.011 692 0 541.792 0 356.5C0 171.208 174.5 13.5 368.267 2C562.524 2 720 171.208 720 356.5Z" stroke="#E9BE50" stroke-width="3" stroke-linecap="round" stroke-linejoin="round" stroke-dasharray="1 10"/>
</g>
</svg>
