<svg width="459" height="635" viewBox="0 0 459 635" fill="none" xmlns="http://www.w3.org/2000/svg">
<g clip-path="url(#clip0_535_138)">
<mask id="mask0_535_138" style="mask-type:alpha" maskUnits="userSpaceOnUse" x="52" y="13" width="407" height="622">
<rect x="52" y="13" width="407" height="622" fill="#D9D9D9"/>
</mask>
<g mask="url(#mask0_535_138)">
<path d="M772 397.5C772 582.792 614.524 733 420.267 733C226.011 733 52 582.792 52 397.5C52 212.208 226.5 54.5 420.267 43C614.524 43 772 212.208 772 397.5Z" fill="#E9BE50"/>
</g>
<mask id="mask1_535_138" style="mask-type:alpha" maskUnits="userSpaceOnUse" x="-5" y="0" width="464" height="635">
<rect x="-5" width="464" height="635" fill="#D9D9D9"/>
</mask>
<g mask="url(#mask1_535_138)">
<path d="M720 356.5C720 541.792 562.961 692 369.244 692C175.527 692 2 541.792 2 356.5C2 171.208 176.016 13.5 369.244 2C562.961 2 720 171.208 720 356.5Z" stroke="#E9BE50" stroke-width="3" stroke-linecap="round" stroke-linejoin="round" stroke-dasharray="1 10"/>
</g>
</g>
<defs>
<clipPath id="clip0_535_138">
<rect width="459" height="635" fill="white"/>
</clipPath>
</defs>
</svg>
